# xmcd
#
# Track frame offsets:
#	150
#	22927
#	50060
#	73892
#	97728
#	121847
#	145059
#	171792
#	172547
#	191154
#	207463
#	227210
#
# Disc length: 3301 seconds
#
# Revision: 0
# Processed by: cddbd v1.4b41PL1 Copyright (c) Steve Scherf et al.
# Submitted via: audiograbber 1.80
#
DISCID=a00ce30c
DTITLE=Marc Cohn - Live - Various 4
DYEAR=1900
DGENRE=
TTITLE0=Ghost train
TTITLE1=Old soldier
TTITLE2=Already home
TTITLE3=Lost you in the canyon
TTITLE4=29 ways
TTITLE5=Healing hands
TTITLE6=Walking in Memphis
TTITLE7=Blank
TTITLE8=Walking in Memphis 1991
TTITLE9=Paper walls
TTITLE10=Already home 1998
TTITLE11=Walking in Memphis 1998
EXTD=
EXTT0=
EXTT1=
EXTT2=
EXTT3=
EXTT4=
EXTT5=
EXTT6=
EXTT7=
EXTT8=
EXTT9=
EXTT10=
EXTT11=
PLAYORDER=
